<svg width="27" height="26" viewBox="0 0 27 26" fill="none" xmlns="http://www.w3.org/2000/svg">
<path d="M24.3813 10.8784H23.5086V10.8334H13.7586V15.1667H19.8811C18.9879 17.6893 16.5878 19.5001 13.7586 19.5001C10.169 19.5001 7.25863 16.5897 7.25863 13.0001C7.25863 9.41046 10.169 6.50008 13.7586 6.50008C15.4156 6.50008 16.923 7.12516 18.0708 8.14621L21.135 5.082C19.2002 3.27879 16.6121 2.16675 13.7586 2.16675C7.77592 2.16675 2.92529 7.01737 2.92529 13.0001C2.92529 18.9828 7.77592 23.8334 13.7586 23.8334C19.7413 23.8334 24.592 18.9828 24.592 13.0001C24.592 12.2737 24.5172 11.5647 24.3813 10.8784Z" fill="#FFC107"/>
<path d="M4.17432 7.95771L7.73361 10.568C8.69669 8.18358 11.0291 6.50008 13.7586 6.50008C15.4155 6.50008 16.923 7.12516 18.0708 8.14621L21.135 5.082C19.2002 3.27879 16.6121 2.16675 13.7586 2.16675C9.59748 2.16675 5.9889 4.51596 4.17432 7.95771Z" fill="#FF3D00"/>
<path d="M13.7586 23.8335C16.5569 23.8335 19.0995 22.7626 21.0218 21.0211L17.6689 18.1839C16.5447 19.0388 15.171 19.5012 13.7586 19.5001C10.9409 19.5001 8.54834 17.7034 7.64701 15.196L4.11426 17.9179C5.90717 21.4263 9.54826 23.8335 13.7586 23.8335Z" fill="#4CAF50"/>
<path d="M24.3814 10.8782H23.5088V10.8333H13.7588V15.1666H19.8812C19.454 16.3671 18.6844 17.4162 17.6675 18.1842L17.6691 18.1831L21.022 21.0204C20.7847 21.236 24.5921 18.4166 24.5921 12.9999C24.5921 12.2735 24.5174 11.5645 24.3814 10.8782Z" fill="#1976D2"/>
</svg>
